<?xml version="1.0" encoding="UTF-8" standalone="no"?>
<!-- Created with Inkscape (http://www.inkscape.org/) -->

<svg
   width="100mm"
   height="100mm"
   viewBox="0 0 100 100"
   version="1.1"
   id="svg1"
   xml:space="preserve"
   inkscape:version="1.4 (86a8ad7, 2024-10-11)"
   sodipodi:docname="logo.svg"
   xmlns:inkscape="http://www.inkscape.org/namespaces/inkscape"
   xmlns:sodipodi="http://sodipodi.sourceforge.net/DTD/sodipodi-0.dtd"
   xmlns:xlink="http://www.w3.org/1999/xlink"
   xmlns="http://www.w3.org/2000/svg"
   xmlns:svg="http://www.w3.org/2000/svg"><sodipodi:namedview
     id="namedview1"
     pagecolor="#ffffff"
     bordercolor="#000000"
     borderopacity="0.25"
     inkscape:showpageshadow="2"
     inkscape:pageopacity="0.0"
     inkscape:pagecheckerboard="0"
     inkscape:deskcolor="#d1d1d1"
     inkscape:document-units="mm"
     inkscape:zoom="1"
     inkscape:cx="183"
     inkscape:cy="182.5"
     inkscape:window-width="1920"
     inkscape:window-height="1017"
     inkscape:window-x="-8"
     inkscape:window-y="-8"
     inkscape:window-maximized="1"
     inkscape:current-layer="layer1" /><defs
     id="defs1"><linearGradient
       id="linearGradient35"
       inkscape:collect="always"><stop
         style="stop-color:#ffc265;stop-opacity:1;"
         offset="0"
         id="stop35" /><stop
         style="stop-color:#ff6933;stop-opacity:1;"
         offset="1"
         id="stop36" /></linearGradient><linearGradient
       inkscape:collect="always"
       xlink:href="#linearGradient35"
       id="linearGradient36"
       x1="1.0752909"
       y1="67.795866"
       x2="99.798593"
       y2="67.795866"
       gradientUnits="userSpaceOnUse" /></defs><g
     inkscape:label="Layer 1"
     inkscape:groupmode="layer"
     id="layer1"><path
       style="font-weight:bold;font-size:77.6829px;font-family:'Adobe Gothic Std';-inkscape-font-specification:'Adobe Gothic Std, Bold';fill:#ffffff;fill-opacity:1;stroke:#000000;stroke-width:1.37228;stroke-dasharray:none;stroke-opacity:1"
       d="m 38.059464,33.814916 -6.188593,23.94974 c -1.849465,7.624138 -3.485531,15.331149 -4.765929,22.45806 H 26.891544 C 25.682277,72.930062 24.117345,65.471666 22.339015,57.764656 L 16.434954,33.814916 H 3.4175691 L -0.28136,97.542768 H 9.3216293 L 10.388628,73.012933 c 0.355666,-7.872752 0.711333,-17.320054 0.853599,-25.358547 h 0.213399 c 1.2804,7.789879 2.987597,16.408472 4.765929,23.618255 l 6.046326,25.358548 h 7.966925 l 6.686526,-25.772904 c 1.849464,-7.126912 3.841195,-15.579761 5.406127,-23.203899 h 0.213399 c -0.07113,6.463943 0.284533,16.739956 0.569067,25.109934 L 44.10579,97.542768 H 54.135579 L 51.005715,33.814916 Z m 23.829679,0 V 44.09093 h 21.83791 v 0.331483 L 59.755145,90.664471 v 6.878297 H 97.028967 V 87.183886 H 73.341597 V 86.852402 L 96.815576,41.439055 v -7.624139 z"
       id="text1"
       aria-label="MZ&#10;" /><path
       style="font-weight:bold;font-size:77.6829px;font-family:'Adobe Gothic Std';-inkscape-font-specification:'Adobe Gothic Std, Bold';fill:#ffffff;fill-opacity:1;stroke:#000000;stroke-width:1.37228;stroke-dasharray:none;stroke-opacity:1"
       d="m 38.58037,34.344171 -6.188593,23.94974 c -1.849465,7.624138 -3.485531,15.331148 -4.765929,22.45806 H 27.41245 C 26.203183,73.459317 24.638251,66.00092 22.859921,58.293911 L 16.95586,34.344171 H 3.9384748 L 0.23954565,98.072025 H 9.8425353 L 10.909534,73.542187 C 11.2652,65.669435 11.620866,56.222134 11.763133,48.183641 h 0.213399 c 1.2804,7.789879 2.987597,16.408471 4.765929,23.618255 l 6.046326,25.358547 h 7.966925 l 6.686526,-25.772904 c 1.849464,-7.126912 3.841195,-15.579761 5.406127,-23.203898 h 0.213399 c -0.07113,6.463943 0.284533,16.739955 0.569067,25.109933 l 0.995865,24.778451 H 54.656485 L 51.526621,34.344171 Z m 23.829679,0 v 10.276013 h 21.83791 v 0.331483 L 60.276051,91.193726 v 6.878299 H 97.549873 V 87.713141 H 73.862503 V 87.381656 L 97.336482,41.96831 v -7.624139 z"
       id="path21"
       aria-label="MZ&#10;" /><path
       style="font-weight:bold;font-size:77.6829px;font-family:'Adobe Gothic Std';-inkscape-font-specification:'Adobe Gothic Std, Bold';fill:#ffffff;fill-opacity:1;stroke:#000000;stroke-width:1.37228;stroke-dasharray:none;stroke-opacity:1"
       d="m 39.101276,34.873425 -6.188593,23.94974 c -1.849465,7.624138 -3.485531,15.331149 -4.765929,22.45806 H 27.933355 C 26.724089,73.988571 25.159157,66.530175 23.380827,58.823165 L 17.476766,34.873425 H 4.4593805 L 0.76045133,98.601283 H 10.363441 L 11.43044,74.071442 c 0.355666,-7.872752 0.711332,-17.320053 0.853599,-25.358547 h 0.213399 c 1.2804,7.789879 2.987597,16.408472 4.765929,23.618255 l 6.046326,25.358548 h 7.966925 l 6.686526,-25.772904 c 1.849464,-7.126912 3.841195,-15.579761 5.406127,-23.203899 h 0.213399 c -0.07113,6.463943 0.284533,16.739956 0.569067,25.109934 l 0.995865,24.778454 H 55.177391 L 52.047527,34.873425 Z m 23.829679,0 v 10.276014 h 21.83791 v 0.331483 L 60.796957,91.72298 v 6.878303 H 98.070775 V 88.242395 H 74.383409 V 87.910911 L 97.857388,42.497564 v -7.624139 z"
       id="path22"
       aria-label="MZ&#10;" /><path
       style="font-weight:bold;font-size:77.6829px;font-family:'Adobe Gothic Std';-inkscape-font-specification:'Adobe Gothic Std, Bold';fill:#ffffff;fill-opacity:1;stroke:#000000;stroke-width:1.37228;stroke-dasharray:none;stroke-opacity:1"
       d="M 39.622182,35.40268 33.433589,59.35242 C 31.584124,66.976558 29.948058,74.683568 28.66766,81.81048 H 28.454261 C 27.244995,74.517826 25.680063,67.059429 23.901733,59.35242 L 17.997672,35.40268 H 4.9802861 L 1.281357,99.13054 h 9.60299 l 1.066999,-24.529844 c 0.355666,-7.872752 0.711332,-17.320053 0.853599,-25.358546 h 0.213399 c 1.2804,7.789879 2.987597,16.408471 4.765929,23.618255 l 6.046326,25.358544 h 7.966925 L 38.48405,72.446048 c 1.849464,-7.126912 3.841195,-15.57976 5.406127,-23.203898 h 0.213399 c -0.07113,6.463943 0.284533,16.739955 0.569067,25.109933 L 45.668508,99.13054 H 55.698297 L 52.568433,35.40268 Z m 23.829679,0 v 10.276013 h 21.83791 v 0.331483 L 61.317863,92.252235 V 99.13054 H 98.591684 V 88.77165 H 74.904315 V 88.440165 L 98.378289,43.026819 V 35.40268 Z"
       id="path23"
       aria-label="MZ&#10;" /><path
       style="font-weight:bold;font-size:77.6829px;font-family:'Adobe Gothic Std';-inkscape-font-specification:'Adobe Gothic Std, Bold';fill:url(#linearGradient36);fill-opacity:1;stroke:#000000;stroke-width:1.372;stroke-dasharray:none;stroke-opacity:1"
       d="m 40.143088,35.931934 -6.188593,23.94974 c -1.849465,7.624138 -3.485531,15.331149 -4.765929,22.45806 H 28.975167 C 27.765901,75.04708 26.200969,67.588684 24.422639,59.881674 L 18.518578,35.931934 H 5.5011918 L 1.8022627,99.659798 h 9.6029903 l 1.066999,-24.529847 c 0.355666,-7.872752 0.711332,-17.320053 0.853599,-25.358547 h 0.213399 c 1.2804,7.789879 2.987597,16.408472 4.765929,23.618255 l 6.046326,25.358548 h 7.966925 l 6.686525,-25.772904 c 1.849465,-7.126912 3.841196,-15.579761 5.406128,-23.203899 h 0.213399 c -0.07113,6.463943 0.284533,16.739956 0.569067,25.109934 l 0.995865,24.77846 H 56.219203 L 53.089339,35.931934 Z m 23.829679,0 v 10.276014 h 21.83791 v 0.331483 L 61.838769,92.781489 v 6.878309 H 99.112593 V 89.300904 H 75.425221 V 88.96942 L 98.899198,43.556073 v -7.624139 z"
       id="path24"
       aria-label="MZ&#10;" /><g
       style="fill:#ffffff;fill-opacity:1;stroke:#000000;stroke-opacity:1;stroke-width:6.78629989;stroke-dasharray:none"
       id="g25"
       transform="matrix(0.14638629,0,0,0.16509671,32.014583,-5.942102)"><path
         d="m 237.09324,93.929616 c 0.041,0.736 -0.013,1.485 -0.198,2.229 l -16.5,66.000004 c -0.832,3.325 -3.812,5.663 -7.238,5.681 l -99,0.5 c -0.013,0 -0.025,0 -0.038,0 H 15.118243 c -3.444,0 -6.4450002,-2.346 -7.2770002,-5.688 L -8.6587571,96.401616 c -0.19,-0.764 -0.245,-1.534 -0.197,-2.289 -6.3829999,-2.011 -11.0259999,-7.984 -11.0259999,-15.023 0,-8.685 7.065,-15.75 15.7499998,-15.75 8.6850001,0 15.7500002,7.065 15.7500002,15.75 0,4.891 -2.2410002,9.267 -5.7500002,12.158 L 26.526243,112.06162 c 5.221,5.261 12.466,8.277 19.878,8.277 8.764,0 17.12,-4.162 22.382,-11.135 L 102.73624,64.219616 c -2.851997,-2.85 -4.617997,-6.788 -4.617997,-11.13 0,-8.685 7.064997,-15.75 15.749997,-15.75 8.685,0 15.75,7.065 15.75,15.75 0,4.212 -1.672,8.035 -4.375,10.864 0.009,0.012 0.02,0.022 0.029,0.035 l 33.704,45.108004 c 5.26,7.04 13.646,11.243 22.435,11.243 7.48,0 14.514,-2.913 19.803,-8.203 l 20.788,-20.788004 c -3.583,-2.89 -5.884,-7.308 -5.884,-12.259 0,-8.685 7.065,-15.75 15.75,-15.75 8.685,0 15.75,7.065 15.75,15.75 0,6.851 -4.405,12.678 -10.525,14.84 z m -18.308,97.910004 c 0,-4.142 -3.358,-7.5 -7.5,-7.5 H 17.285243 c -4.142,0 -7.5000002,3.358 -7.5000002,7.5 v 18 c 0,4.142 3.3580002,7.5 7.5000002,7.5 H 211.28524 c 4.142,0 7.5,-3.358 7.5,-7.5 z"
         id="path1"
         style="fill:#ffffff;fill-opacity:1;stroke:#000000;stroke-width:6.7863;stroke-dasharray:none;stroke-opacity:1" /><path
         d="m 240.7081,97.134808 c 0.041,0.736 -0.013,1.485 -0.198,2.229 l -16.5,66.000002 c -0.832,3.325 -3.812,5.663 -7.238,5.681 l -99,0.5 c -0.013,0 -0.025,0 -0.038,0 H 18.733108 c -3.444,0 -6.445,-2.346 -7.277,-5.688 L -5.0438922,99.606808 c -0.19,-0.764 -0.245,-1.534 -0.197,-2.289 -6.3829998,-2.011 -11.0259998,-7.984 -11.0259998,-15.023 0,-8.685 7.0649999,-15.75 15.74999973,-15.75 8.68500007,0 15.75000027,7.065 15.75000027,15.75 0,4.891 -2.241,9.267 -5.7500003,12.158 L 30.141108,115.26681 c 5.221,5.261 12.466,8.277 19.878,8.277 8.764,0 17.12,-4.162 22.382,-11.135 L 106.3511,67.424808 c -2.85199,-2.85 -4.61799,-6.788 -4.61799,-11.13 0,-8.685 7.06499,-15.75 15.74999,-15.75 8.685,0 15.75,7.065 15.75,15.75 0,4.212 -1.672,8.035 -4.375,10.864 0.009,0.012 0.02,0.022 0.029,0.035 l 33.704,45.108002 c 5.26,7.04 13.646,11.243 22.435,11.243 7.48,0 14.514,-2.913 19.803,-8.203 l 20.788,-20.788002 c -3.583,-2.89 -5.884,-7.308 -5.884,-12.259 0,-8.685 7.065,-15.75 15.75,-15.75 8.685,0 15.75,7.065 15.75,15.75 0,6.851 -4.405,12.678 -10.525,14.84 z m -18.308,97.910002 c 0,-4.142 -3.358,-7.5 -7.5,-7.5 H 20.900108 c -4.142,0 -7.5,3.358 -7.5,7.5 v 18 c 0,4.142 3.358,7.5 7.5,7.5 H 214.9001 c 4.142,0 7.5,-3.358 7.5,-7.5 z"
         id="path32"
         style="fill:#ffffff;fill-opacity:1;stroke:#000000;stroke-width:6.7863;stroke-dasharray:none;stroke-opacity:1" /><path
         d="m 244.32296,100.34 c 0.041,0.736 -0.013,1.485 -0.198,2.229 l -16.5,66 c -0.832,3.325 -3.812,5.663 -7.238,5.681 l -99,0.5 c -0.013,0 -0.025,0 -0.038,0 H 22.347973 c -3.444,0 -6.445,-2.346 -7.277,-5.688 l -16.5000003,-66.25 c -0.19,-0.764 -0.245,-1.534 -0.197,-2.289 C -8.0090271,98.512 -12.652027,92.539 -12.652027,85.5 c 0,-8.685 7.0649998,-15.75 15.7499997,-15.75 8.6850003,0 15.7500003,7.065 15.7500003,15.75 0,4.891 -2.241,9.267 -5.75,12.158 l 20.658,20.814 c 5.221,5.261 12.466,8.277 19.878,8.277 8.764,0 17.12,-4.162 22.382,-11.135 L 109.96596,70.63 c -2.85199,-2.85 -4.61799,-6.788 -4.61799,-11.13 0,-8.685 7.06499,-15.75 15.74999,-15.75 8.685,0 15.75,7.065 15.75,15.75 0,4.212 -1.672,8.035 -4.375,10.864 0.009,0.012 0.02,0.022 0.029,0.035 l 33.704,45.108 c 5.26,7.04 13.646,11.243 22.435,11.243 7.48,0 14.514,-2.913 19.803,-8.203 l 20.788,-20.788 c -3.583,-2.89 -5.884,-7.308 -5.884,-12.259 0,-8.685 7.065,-15.75 15.75,-15.75 8.685,0 15.75,7.065 15.75,15.75 0,6.851 -4.405,12.678 -10.525,14.84 z m -18.308,97.91 c 0,-4.142 -3.358,-7.5 -7.5,-7.5 H 24.514973 c -4.142,0 -7.5,3.358 -7.5,7.5 v 18 c 0,4.142 3.358,7.5 7.5,7.5 H 218.51496 c 4.142,0 7.5,-3.358 7.5,-7.5 z"
         id="path33"
         style="fill:#ffffff;fill-opacity:1;stroke:#000000;stroke-width:6.7863;stroke-dasharray:none;stroke-opacity:1" /><path
         d="m 244.32296,100.34 c 0.041,0.736 -0.013,1.485 -0.198,2.229 l -16.5,66 c -0.832,3.325 -3.812,5.663 -7.238,5.681 l -99,0.5 c -0.013,0 -0.025,0 -0.038,0 H 22.347973 c -3.444,0 -6.445,-2.346 -7.277,-5.688 l -16.5000003,-66.25 c -0.19,-0.764 -0.245,-1.534 -0.197,-2.289 C -8.0090271,98.512 -12.652027,92.539 -12.652027,85.5 c 0,-8.685 7.0649998,-15.75 15.7499997,-15.75 8.6850003,0 15.7500003,7.065 15.7500003,15.75 0,4.891 -2.241,9.267 -5.75,12.158 l 20.658,20.814 c 5.221,5.261 12.466,8.277 19.878,8.277 8.764,0 17.12,-4.162 22.382,-11.135 L 109.96596,70.63 c -2.85199,-2.85 -4.61799,-6.788 -4.61799,-11.13 0,-8.685 7.06499,-15.75 15.74999,-15.75 8.685,0 15.75,7.065 15.75,15.75 0,4.212 -1.672,8.035 -4.375,10.864 0.009,0.012 0.02,0.022 0.029,0.035 l 33.704,45.108 c 5.26,7.04 13.646,11.243 22.435,11.243 7.48,0 14.514,-2.913 19.803,-8.203 l 20.788,-20.788 c -3.583,-2.89 -5.884,-7.308 -5.884,-12.259 0,-8.685 7.065,-15.75 15.75,-15.75 8.685,0 15.75,7.065 15.75,15.75 0,6.851 -4.405,12.678 -10.525,14.84 z m -18.308,97.91 c 0,-4.142 -3.358,-7.5 -7.5,-7.5 H 24.514973 c -4.142,0 -7.5,3.358 -7.5,7.5 v 18 c 0,4.142 3.358,7.5 7.5,7.5 H 218.51496 c 4.142,0 7.5,-3.358 7.5,-7.5 z"
         id="path34"
         style="fill:#f8ff43;fill-opacity:1;stroke:#000000;stroke-width:6.7863;stroke-dasharray:none;stroke-opacity:1" /></g><g
       style="fill:#ffffff;fill-opacity:1;stroke:#000000;stroke-opacity:1;stroke-width:6.78629989;stroke-dasharray:none"
       id="g27"
       transform="matrix(0.14638629,0,0,0.16509671,32.014583,-5.942102)" /></g></svg>
